<svg xmlns="http://www.w3.org/2000/svg" viewBox="0 0 77.01 63.03"><defs><style>.cls-1{fill:#fff;}.cls-2{fill:#ffbd1a;}.cls-3{fill:#f1f2f2;}.cls-4{fill:#ffd364;}.cls-5{fill:#ffc200;}.cls-6{fill:#668e19;}.cls-7{fill:#8dc63f;}.cls-8{fill:#bc1e1b;}.cls-9{fill:#ef4136;}.cls-10{fill:#231f20;}.cls-11{fill:#182460;}</style></defs><title>Asset 1</title><g id="Layer_2" data-name="Layer 2"><g id="Layer_1-2" data-name="Layer 1"><rect class="cls-1" x="3.75" y="7.97" width="37.26" height="25.74"/><rect class="cls-2" x="7.17" y="11" width="30.42" height="19.68"/><polygon class="cls-3" points="3.75 33.71 0 39.84 44.77 39.84 41.02 33.71 3.75 33.71"/><rect class="cls-1" y="39.84" width="44.77" height="3.26"/><path class="cls-4" d="M34.29,51.92v-3l-2.51-1.75a1.84,1.84,0,0,1-.6-.7l-1.24-2.67a1.05,1.05,0,0,1,.55-1.43h0a1.05,1.05,0,0,1,1.35.48l.89,1.66h.67a.8.8,0,0,0,.8-.8v-6a.71.71,0,0,1,.71-.71h.87v-.13a.88.88,0,0,1,.88-.88H37a.87.87,0,0,1,.88.88h.86a.63.63,0,0,1,.63.62v.29h.36a1,1,0,0,1,1,1V46.2a2,2,0,0,1-.45,1.24L39,49v2.63Z"/><path class="cls-5" d="M36.52,36.06a.88.88,0,0,0-.74.87v.13h-.87a.71.71,0,0,0-.71.71v6a.8.8,0,0,1-.8.8h-.67l-.89-1.66a1.05,1.05,0,0,0-1.35-.48h0a1.05,1.05,0,0,0-.55,1.43l1.24,2.67a1.84,1.84,0,0,0,.6.7l2.51,1.75v3l2.23-.15Z"/><rect class="cls-6" x="33.37" y="52.72" width="3.15" height="10.32"/><rect class="cls-7" x="32.9" y="56.3" width="10.32" height="3.15" transform="translate(-19.82 95.93) rotate(-90)"/><rect class="cls-8" x="32.69" y="51.01" width="3.84" height="3.75" transform="translate(-18.28 87.49) rotate(-90)"/><rect class="cls-9" x="36.44" y="51.01" width="3.84" height="3.75" transform="translate(-14.53 91.24) rotate(-90)"/><path class="cls-5" d="M11.1,51.92v-3l2.51-1.75a1.82,1.82,0,0,0,.59-.7l1.25-2.67a1.07,1.07,0,0,0-.56-1.43h0a1.05,1.05,0,0,0-1.35.48l-.88,1.66H12a.8.8,0,0,1-.8-.8v-6a.71.71,0,0,0-.71-.71H9.6v-.13a.87.87,0,0,0-.87-.88H8.37a.87.87,0,0,0-.87.88H6.63a.62.62,0,0,0-.62.62v.29H5.64a1,1,0,0,0-1,1V46.2a2,2,0,0,0,.45,1.24L6.39,49v2.63Z"/><path class="cls-4" d="M8.86,36.06a.88.88,0,0,1,.74.87v.13h.87a.71.71,0,0,1,.71.71v6a.8.8,0,0,0,.8.8h.68l.88-1.66a1.05,1.05,0,0,1,1.35-.48h0a1.07,1.07,0,0,1,.56,1.43L14.2,46.49a1.82,1.82,0,0,1-.59.7L11.1,48.94v3l-2.24-.15Z"/><rect class="cls-7" x="5.28" y="56.3" width="10.32" height="3.15" transform="translate(-47.44 68.31) rotate(-90)"/><rect class="cls-6" x="5.76" y="52.72" width="3.15" height="10.32"/><rect class="cls-9" x="8.86" y="51.01" width="3.84" height="3.75" transform="translate(-42.11 63.67) rotate(-90)"/><rect class="cls-8" x="5.11" y="51.01" width="3.84" height="3.75" transform="translate(-45.86 59.92) rotate(-90)"/><path class="cls-10" d="M48.31,13.65h-.4v-.46h.4Zm-1.51,0h-.41v-.46h.41Zm-1.52,0h-.4v-.46h.4Zm-1.52,0h-.4v-.46h.4Zm-1.51,0h-.41v-.46h.41Zm-1.52,0h-.4v-.46h.4Zm-1.52,0h-.4v-.46h.4Zm-1.51,0h-.41v-.46h.41Zm-1.52,0h-.4v-.46h.4Zm-1.52,0h-.4v-.46h.4Zm-1.51,0h-.4v-.46h.4Zm-1.52,0h-.4v-.46h.4Zm-1.52,0h-.4v-.46h.4Zm-1.51,0h-.4v-.46h.4Zm-1.52,0h-.4v-.46h.4Zm-1.51,0h-.41v-.46h.41Zm-1.52,0h-.4v-.46h.4Zm-1.52,0h-.4v-.46h.4Zm-1.51,0h-.41v-.46H21Zm-1.52,0h-.4v-.46h.4Zm-1.52,0h-.4v-.46H18Zm-1.51,0h-.41v-.46h.41ZM49.28,13h-.46v-.4h.46Zm0-1.51h-.46v-.41h.46Zm0-1.52h-.46v-.4h.46Zm0-1.52h-.46v-.4h.46Zm0-1.51h-.46V6.57h.46Zm0-1.52h-.46v-.4h.46Zm0-1.52h-.46v-.4h.46Zm4-.51h-.4V3h.4Zm-1.52,0h-.4V3h.4Zm-1.51,0h-.41V3h.41Z"/><path class="cls-10" d="M60.44,17.62H60v-.46h.4Zm-1.51,0h-.41v-.46h.41Zm-1.52,0H57v-.46h.4Zm-1.52,0h-.4v-.46h.4Zm-1.51,0H54v-.46h.4Zm-1.52,0h-.4v-.46h.4Zm-1.52,0h-.4v-.46h.4Zm-1.51,0h-.4v-.46h.4Zm-1.52,0h-.4v-.46h.4Zm-1.51,0h-.41v-.46h.41Zm-1.52,0h-.4v-.46h.4Zm-1.52,0h-.4v-.46h.4Zm-1.51,0h-.41v-.46h.41Zm-1.52,0h-.4v-.46h.4Zm-1.52,0h-.4v-.46h.4Zm-1.51,0h-.41v-.46h.41Zm-1.52,0h-.4v-.46h.4Zm-1.52,0h-.4v-.46h.4Zm-1.51,0h-.4v-.46h.4Zm-1.52,0h-.4v-.46h.4Zm-1.52,0h-.4v-.46h.4Zm-1.51,0h-.4v-.46h.4Zm-1.52,0h-.4v-.46h.4Zm-1.51,0h-.41v-.46h.41Zm-1.52,0h-.4v-.46h.4Zm-1.52,0h-.4v-.46h.4Zm-1.51,0h-.41v-.46H21Zm-1.52,0h-.4v-.46h.4Zm-1.52,0h-.4v-.46H18Zm-1.51,0h-.41v-.46h.41Z"/><path class="cls-10" d="M65.74,29.41h-.4v-.47h.4Zm-1.51,0h-.41v-.47h.41Zm-1.52,0h-.4v-.47h.4Zm-1.52,0h-.4v-.47h.4Zm-1.51,0h-.41v-.47h.41Zm-1.52,0h-.4v-.47h.4Zm-1.52,0h-.4v-.47h.4Zm-.91-.61h-.46v-.4h.46Zm0-1.52h-.46v-.4h.46Zm0-1.51h-.46v-.41h.46Zm0-1.52h-.46v-.4h.46Zm0-1.52h-.46v-.4h.46Zm0-1.51h-.46v-.4h.23v-.23h.24Zm-1.35-.16H54v-.47h.4Zm-1.52,0h-.4v-.47h.4Zm-1.52,0h-.4v-.47h.4Zm-1.51,0h-.4v-.47h.4Zm-1.52,0h-.4v-.47h.4Zm-1.51,0h-.41v-.47h.41Zm-1.52,0h-.4v-.47h.4Zm-1.52,0h-.4v-.47h.4Zm-1.51,0h-.41v-.47h.41Zm-1.52,0h-.4v-.47h.4Zm-1.52,0h-.4v-.47h.4Zm-1.51,0h-.41v-.47h.41Zm-1.52,0h-.4v-.47h.4Zm-1.52,0h-.4v-.47h.4Zm-1.51,0h-.4v-.47h.4Zm-1.52,0h-.4v-.47h.4Zm-1.52,0h-.4v-.47h.4Zm-1.51,0h-.4v-.47h.4Zm-1.52,0h-.4v-.47h.4Zm-1.51,0h-.41v-.47h.41Zm-1.52,0h-.4v-.47h.4Zm-1.52,0h-.4v-.47h.4Zm-1.51,0h-.41v-.47H21Zm-1.52,0h-.4v-.47h.4Zm-1.52,0h-.4v-.47H18Zm-1.51,0h-.41v-.47h.41Z"/><path class="cls-10" d="M53,41.49h-.41V41H53Zm1.51,0h-.4V41h.4Zm1.52,0h-.4V41H56Zm2.63,0V41H59v.47Zm-1.12,0h-.4V41h.4Zm-5.08-1H52v-.41h.47Zm0-1.52H52v-.4h.47Zm0-1.52H52v-.4h.47Zm0-1.51H52v-.41h.47Zm0-1.52H52v-.4h.47Zm0-1.52H52v-.4h.47Zm0-1.51H52V31h.47Zm0-1.52H52v-.4h.47Zm0-1.51H52V28h.47Zm0-1.52H52v-.4h.47Zm0-1.52H52V25h.47Zm-1.1-.42h-.4v-.47h.4Zm-1.51,0h-.4v-.47h.4Zm-1.52,0h-.4v-.47h.4Zm-1.51,0h-.41v-.47h.41Zm-1.52,0h-.4v-.47h.4Zm-1.52,0h-.4v-.47h.4Zm-1.51,0h-.41v-.47h.41Zm-1.52,0h-.4v-.47h.4Zm-1.52,0h-.4v-.47h.4Zm-1.51,0h-.41v-.47h.41Zm-1.52,0h-.4v-.47h.4Zm-1.52,0h-.4v-.47h.4Zm-1.51,0h-.4v-.47h.4Zm-1.52,0h-.4v-.47h.4Zm-1.52,0h-.4v-.47h.4Zm-1.51,0h-.4v-.47h.4Zm-1.52,0h-.4v-.47h.4Zm-1.51,0h-.41v-.47h.41Zm-1.52,0h-.4v-.47h.4Zm-1.52,0h-.4v-.47h.4Zm-1.51,0h-.41v-.47H21Zm-1.52,0h-.4v-.47h.4Zm-1.52,0h-.4v-.47H18Zm-1.51,0h-.41v-.47h.41Z"/><path class="cls-5" d="M61.6,17.39a1.19,1.19,0,1,1-1.18-1.19A1.18,1.18,0,0,1,61.6,17.39Z"/><path class="cls-5" d="M55.55,3.2a1.19,1.19,0,1,1-2.38,0,1.19,1.19,0,1,1,2.38,0Z"/><path class="cls-5" d="M67.12,29.17A1.19,1.19,0,1,1,65.93,28,1.19,1.19,0,0,1,67.12,29.17Z"/><path class="cls-5" d="M61.31,41.26a1.19,1.19,0,1,1-1.18-1.19A1.19,1.19,0,0,1,61.31,41.26Z"/><path class="cls-10" d="M65.08,5.59H57.84V0h7.24Zm-6.93-.3h6.62v-5H58.15Z"/><path class="cls-10" d="M65.08,7.65H57.84V5.29h7.24Zm-6.93-.31h6.62V5.59H58.15Z"/><rect class="cls-10" x="60.9" y="6.03" width="2.28" height="0.31"/><rect class="cls-10" x="60.9" y="6.61" width="3.12" height="0.31"/><path class="cls-6" d="M62.45,2A1.09,1.09,0,1,1,61.36.91,1.09,1.09,0,0,1,62.45,2Z"/><path class="cls-6" d="M62.48,4.55H60.24V4.22a1.12,1.12,0,0,1,1.12-1.11h0a1.12,1.12,0,0,1,1.12,1.11Z"/><path class="cls-10" d="M59.5,7.16l-.08,0s-.65-.35-.65-.75a.46.46,0,0,1,.45-.49.53.53,0,0,1,.28.1.45.45,0,0,1,.27-.1.46.46,0,0,1,.45.49c0,.41-.65.75-.65.75Zm-.28-1c-.1,0-.14.1-.14.18s.24.33.42.44c.17-.11.41-.32.41-.44s0-.18-.14-.18a.26.26,0,0,0-.16.09l-.11.12-.12-.12A.26.26,0,0,0,59.22,6.19Z"/><polygon class="cls-10" points="64.33 44.29 62.9 40.11 66.13 39 66.23 39.29 63.29 40.3 64.52 43.9 66.41 43.25 66.51 43.54 64.33 44.29"/><polygon class="cls-10" points="64.73 45.46 64.23 44 66.41 43.25 66.51 43.54 64.62 44.19 64.92 45.07 69.14 43.63 69.08 43.44 69.37 43.34 69.53 43.82 64.73 45.46"/><polygon class="cls-6" points="66.18 40.39 66.12 40.35 65.67 41.82 65.12 41.52 64.73 42.75 66.18 42.25 66.18 40.39"/><path class="cls-10" d="M71.11,42.31H66V37.89h5.08ZM66.34,42H70.8V38.2H66.34Z"/><polygon class="cls-10" points="69.83 43.55 66.03 43.55 66.03 42 71.11 42 71.11 42.99 70.8 42.99 70.8 42.31 66.34 42.31 66.34 43.24 69.83 43.24 69.83 43.55"/><polygon class="cls-6" points="66.91 40.99 67.67 39.95 68.1 40.42 69 39.17 70.28 40.99 66.91 40.99"/><path class="cls-10" d="M71.12,45.42H69.6V43.7a.87.87,0,0,1,.87-.86h.89v-.58l2.06,1.33-2.06,1.34v-.58H71.2a.09.09,0,0,0-.08.08Zm-1.21-.31h.9v-.68A.39.39,0,0,1,71.2,44h.47v.32l1.18-.77-1.18-.76v.32h-1.2a.56.56,0,0,0-.56.55Z"/><polygon class="cls-10" points="70.02 20.02 63.97 20.02 63.97 14.33 71.32 14.33 71.32 19.3 71.01 19.3 71.01 14.64 64.28 14.64 64.28 19.71 70.02 19.71 70.02 20.02"/><path class="cls-10" d="M71.31,15.84H64V14.33h7.34Zm-7-.31H71v-.89H64.28Z"/><polygon class="cls-6" points="66.75 16.5 68.85 17.71 66.75 18.93 66.75 16.5"/><path class="cls-10" d="M65,15.09a.17.17,0,0,1-.17.17.18.18,0,0,1-.17-.17.17.17,0,0,1,.17-.17A.16.16,0,0,1,65,15.09Z"/><path class="cls-10" d="M65.59,15.09a.18.18,0,0,1-.17.17.18.18,0,0,1-.18-.17.17.17,0,0,1,.18-.17A.17.17,0,0,1,65.59,15.09Z"/><path class="cls-10" d="M66.14,15.09a.18.18,0,0,1-.17.17.17.17,0,0,1-.17-.17.16.16,0,0,1,.17-.17A.17.17,0,0,1,66.14,15.09Z"/><path class="cls-10" d="M69.94,21a.27.27,0,0,1-.14,0,.23.23,0,0,1-.08-.27l.21-.66-.56-.41a.25.25,0,0,1-.09-.27.24.24,0,0,1,.23-.16h.69l.22-.66a.24.24,0,0,1,.45,0l.22.66h.69a.23.23,0,0,1,.23.16.24.24,0,0,1-.09.27l-.56.41.22.66a.26.26,0,0,1-.09.27.24.24,0,0,1-.28,0l-.56-.41-.56.41A.28.28,0,0,1,69.94,21Zm.71-.78a.24.24,0,0,1,.14.05l.43.31-.17-.5a.25.25,0,0,1,.09-.27l.43-.31H71a.25.25,0,0,1-.23-.17l-.16-.5-.17.5a.24.24,0,0,1-.23.17h-.53l.43.31a.24.24,0,0,1,.09.27l-.16.5.42-.31A.3.3,0,0,1,70.65,20.18Z"/><path class="cls-10" d="M52.06,52.27h-.38V51.8h.38Zm-1.49,0h-.4V51.8h.4Zm-1.52,0h-.4V51.8h.4Zm-.47-1.05h-.46v-.4h.46Zm0-1.51h-.46V49.3h.46Zm0-1.52h-.46v-.4h.46Zm0-1.52h-.46v-.4h.46Zm0-1.51h-.46v-.41h.46Zm0-1.52h-.46v-.4h.46Zm0-1.52h-.46v-.4h.46Zm0-1.51h-.46V40.2h.46Zm0-1.52h-.46v-.4h.46Zm0-1.52h-.46v-.4h.46Zm0-1.51h-.46v-.41h.46Zm0-1.52h-.46v-.4h.46Zm0-1.52h-.46v-.4h.46Zm-.85-.67h-.4v-.46h.4Zm-1.51,0h-.4v-.46h.4Zm-1.52,0h-.35v-.51h.46v.28H44.7Zm.11-1.63h-.46v-.4h.46Zm0-1.51h-.46v-.4h.46Zm-1.05-.47h-.4v-.46h.4Zm-1.51,0h-.41v-.46h.41Zm-1.52,0h-.4v-.46h.4Zm-1.52,0h-.4v-.46h.4Zm-1.51,0h-.41v-.46h.41Zm-1.52,0h-.4v-.46h.4Zm-1.52,0h-.4v-.46h.4Zm-1.51,0h-.4v-.46h.4Zm-1.52,0h-.4v-.46h.4Zm-1.52,0h-.4v-.46h.4Zm-1.51,0h-.4v-.46h.4Zm-1.52,0h-.4v-.46h.4Zm-1.51,0h-.41v-.46h.41Zm-1.52,0h-.4v-.46h.4Zm-1.52,0h-.4v-.46h.4Zm-1.51,0h-.41v-.46H21Zm-1.52,0h-.4v-.46h.4Zm-1.52,0h-.4v-.46H18Zm-1.51,0h-.41v-.46h.41Z"/><path class="cls-6" d="M62.36,51.34a1.25,1.25,0,0,1-2.49.21,1.59,1.59,0,0,0,.45-1.11.13.13,0,0,0,0-.06,1.22,1.22,0,0,1,.79-.29A1.25,1.25,0,0,1,62.36,51.34Z"/><path class="cls-6" d="M62.39,53.89v.37h-2v-.49a1.53,1.53,0,0,0-.19-.76,1.27,1.27,0,0,1,.93-.4A1.28,1.28,0,0,1,62.39,53.89Z"/><path class="cls-10" d="M58.68,52.23a1.79,1.79,0,1,1,1.8-1.79A1.79,1.79,0,0,1,58.68,52.23Zm0-3.28a1.49,1.49,0,1,0,1.49,1.49A1.49,1.49,0,0,0,58.68,49Z"/><path class="cls-10" d="M58.08,54.42H56.86v-.65A1.84,1.84,0,0,1,57,53l.28.14a1.49,1.49,0,0,0-.15.66v.34h.91Z"/><path class="cls-10" d="M60.52,54.42H58.68v-.31h1.53v-.34a1.4,1.4,0,0,0-.17-.68,1.51,1.51,0,0,0-1.36-.84,1.41,1.41,0,0,0-1,.4l0,0h-.06v-.16l-.11-.11a1.77,1.77,0,0,1,1.22-.48,1.79,1.79,0,0,1,1.63,1,1.65,1.65,0,0,1,.21.83Z"/><path class="cls-10" d="M56.81,56.28h-.14a2,2,0,0,1-1.19-3.55,2,2,0,0,1,3.35,1.67,2,2,0,0,1-.69,1.39A2,2,0,0,1,56.81,56.28Zm0-3.75a1.71,1.71,0,0,0-1.12.42h0a1.69,1.69,0,0,0-.59,1.18A1.69,1.69,0,0,0,56.69,56a1.69,1.69,0,0,0,1.25-.41,1.77,1.77,0,0,0,.59-1.18,1.71,1.71,0,0,0-1.6-1.83Zm0,3.14h-.1a1.44,1.44,0,0,1-1.32-1.52,1.43,1.43,0,0,1,.49-1,1.43,1.43,0,0,1,2,.15,1.43,1.43,0,0,1-.14,2A1.47,1.47,0,0,1,56.81,55.67Zm0-2.54a1.11,1.11,0,0,0-.73.28,1.1,1.1,0,0,0-.38.76,1.11,1.11,0,0,0,1.84.92,1.1,1.1,0,0,0,.11-1.57,1.06,1.06,0,0,0-.76-.38Z"/><rect class="cls-10" x="54.44" y="55.72" width="0.98" height="0.31" transform="translate(-23.22 50.14) rotate(-41.29)"/><path class="cls-10" d="M53.08,58h0a.47.47,0,0,1-.33-.17.5.5,0,0,1,0-.7L54,56.06a.49.49,0,0,1,.7,0,.52.52,0,0,1,.12.36.47.47,0,0,1-.17.33L53.4,57.88A.47.47,0,0,1,53.08,58Zm1.24-1.75a.16.16,0,0,0-.12,0L53,57.37a.14.14,0,0,0-.06.12.18.18,0,0,0,0,.14.27.27,0,0,0,.12.06.16.16,0,0,0,.14,0l1.24-1.07a.26.26,0,0,0,.06-.13.18.18,0,0,0,0-.13A.16.16,0,0,0,54.32,56.25Z"/><rect class="cls-10" x="54.6" y="50.09" width="0.31" height="1.88"/><rect class="cls-10" x="53.82" y="50.87" width="1.88" height="0.31"/><rect class="cls-10" x="60.48" y="55.43" width="0.31" height="1.39"/><rect class="cls-10" x="59.94" y="55.97" width="1.39" height="0.31"/><path class="cls-10" d="M60.52,54.26h-.31v-.49a1.4,1.4,0,0,0-.17-.68l.27-.15a1.65,1.65,0,0,1,.21.83Z"/><path class="cls-5" d="M53.24,52a1.19,1.19,0,1,1-1.18-1.18A1.18,1.18,0,0,1,53.24,52Z"/><path class="cls-10" d="M76.39,28.9a.42.42,0,0,1-.13,0l.09-.29h0c.14,0,.31-.27.31-.63s-.17-.62-.31-.62h0l-.1-.29a.32.32,0,0,1,.14,0c.35,0,.62.41.62.93S76.74,28.9,76.39,28.9Z"/><path class="cls-10" d="M76.46,31.57l-1.08-.95a4.33,4.33,0,0,0-3.2-1.44h-.09l-.41-.73h-.36l.18-.32-.18-.32h.36l.41-.73h.09a4.29,4.29,0,0,0,3.2-1.44l1.08-.95Zm-4.19-2.69a4.68,4.68,0,0,1,3.32,1.51l.56.5V25.38l-.56.49a4.69,4.69,0,0,1-3.32,1.52l-.42.73h0Z"/><path class="cls-10" d="M72.23,32.67H69.59V29.1h1.73Zm-2.33-.31h1.94l-.76-2.95H69.9Z"/><rect class="cls-6" x="68.87" y="26.77" width="3.51" height="2.72"/><path class="cls-11" d="M10,12.92a.52.52,0,0,1-.11.32.76.76,0,0,1-.33.19h0c.33.05.5.2.5.47a.51.51,0,0,1-.22.44,1.08,1.08,0,0,1-.61.15,1.37,1.37,0,0,1-.29,0,1.15,1.15,0,0,1-.29-.08v-.45a.82.82,0,0,0,.26.1l.25,0A.43.43,0,0,0,9.42,14a.15.15,0,0,0,.08-.15.15.15,0,0,0,0-.12.23.23,0,0,0-.13-.07.94.94,0,0,0-.25,0H9v-.4h.13c.27,0,.4-.07.4-.21a.14.14,0,0,0-.06-.12.34.34,0,0,0-.16,0,.79.79,0,0,0-.39.13l-.22-.36A1,1,0,0,1,9,12.51a1.38,1.38,0,0,1,.37,0,.79.79,0,0,1,.49.13A.39.39,0,0,1,10,12.92Z"/><path class="cls-11" d="M11.11,13.17a.61.61,0,0,1,.3.08.49.49,0,0,1,.22.23.67.67,0,0,1,.07.33.63.63,0,0,1-.2.51.86.86,0,0,1-.6.17,1.28,1.28,0,0,1-.56-.1V14a1,1,0,0,0,.26.09l.26,0a.34.34,0,0,0,.22-.06.24.24,0,0,0,0-.36.38.38,0,0,0-.24-.07.86.86,0,0,0-.27.05l-.2-.09.07-1h1.13v.45H10.9l0,.26a.5.5,0,0,1,.15,0Z"/><path class="cls-11" d="M12.93,13.08a.7.7,0,0,1-.14.46.45.45,0,0,1-.38.16.46.46,0,0,1-.37-.16.74.74,0,0,1-.13-.46.7.7,0,0,1,.13-.46.47.47,0,0,1,.37-.16.49.49,0,0,1,.38.17A.69.69,0,0,1,12.93,13.08Zm-.62,0a.57.57,0,0,0,0,.22s0,.07.08.07.06,0,.07-.07a.57.57,0,0,0,0-.22.63.63,0,0,0,0-.23.08.08,0,0,0-.07-.07s-.06,0-.08.07A.63.63,0,0,0,12.31,13.09Zm1.6-.6-1.09,2h-.41l1.1-2Zm.52,1.38a.72.72,0,0,1-.14.46.48.48,0,0,1-.38.16.45.45,0,0,1-.36-.17.69.69,0,0,1-.14-.45.7.7,0,0,1,.13-.46.44.44,0,0,1,.37-.16.47.47,0,0,1,.38.17A.69.69,0,0,1,14.43,13.87Zm-.61,0a1.13,1.13,0,0,0,0,.23s.05.07.08.07.06,0,.08-.08a1.27,1.27,0,0,0,0-.22,1.06,1.06,0,0,0,0-.21c0-.05,0-.08-.08-.08s-.06,0-.08.07A1.09,1.09,0,0,0,13.82,13.87Z"/><path class="cls-11" d="M9.83,18.08H9.29V17c0-.13,0-.25,0-.35l-.12.13L9,17l-.28-.34.68-.55h.48Z"/><path class="cls-11" d="M11.11,16.79a.52.52,0,0,1,.3.08.47.47,0,0,1,.22.22.72.72,0,0,1,.07.33.62.62,0,0,1-.2.51.86.86,0,0,1-.6.18,1.27,1.27,0,0,1-.56-.11v-.44a1,1,0,0,0,.26.09.92.92,0,0,0,.26,0,.34.34,0,0,0,.22-.06.22.22,0,0,0,.08-.19.22.22,0,0,0-.08-.18.38.38,0,0,0-.24-.06.86.86,0,0,0-.27.05l-.2-.1.07-1h1.13v.44H10.9l0,.26.15,0Z"/><path class="cls-11" d="M12.93,16.7a.72.72,0,0,1-.14.46.45.45,0,0,1-.38.16.47.47,0,0,1-.37-.17.69.69,0,0,1-.13-.45.7.7,0,0,1,.13-.46.44.44,0,0,1,.37-.16.46.46,0,0,1,.38.17A.69.69,0,0,1,12.93,16.7Zm-.62,0a.63.63,0,0,0,0,.23s0,.07.08.07a.08.08,0,0,0,.07-.07.63.63,0,0,0,0-.23.57.57,0,0,0,0-.22c0-.05,0-.07-.07-.07s-.06,0-.08.07A.61.61,0,0,0,12.31,16.7Zm1.6-.59-1.09,2h-.41l1.1-2Zm.52,1.37a.7.7,0,0,1-.14.46.45.45,0,0,1-.38.16.44.44,0,0,1-.36-.16.74.74,0,0,1-.14-.46.65.65,0,0,1,.13-.45.44.44,0,0,1,.37-.16.46.46,0,0,1,.38.16A.69.69,0,0,1,14.43,17.48Zm-.61,0a1,1,0,0,0,0,.22c0,.05.05.07.08.07s.06,0,.08-.08a1.06,1.06,0,0,0,0-.21,1.27,1.27,0,0,0,0-.22c0-.05,0-.08-.08-.08s-.06,0-.08.08A1,1,0,0,0,13.82,17.49Z"/><path class="cls-11" d="M10.08,21.82H8.64v-.35L9.12,21l.28-.3a.38.38,0,0,0,.08-.13.27.27,0,0,0,0-.12.17.17,0,0,0,0-.12.2.2,0,0,0-.14,0,.35.35,0,0,0-.19.06,1.08,1.08,0,0,0-.22.15l-.29-.34a1.11,1.11,0,0,1,.26-.19.85.85,0,0,1,.22-.09.86.86,0,0,1,.28,0,.89.89,0,0,1,.34.07.65.65,0,0,1,.24.19.57.57,0,0,1,.08.28.78.78,0,0,1,0,.22.66.66,0,0,1-.09.19.94.94,0,0,1-.16.2c-.07.07-.21.21-.43.4v0h.75Z"/><path class="cls-11" d="M11.11,20.52a.61.61,0,0,1,.3.08.54.54,0,0,1,.22.23.67.67,0,0,1,.07.33.63.63,0,0,1-.2.51.86.86,0,0,1-.6.17,1.28,1.28,0,0,1-.56-.1V21.3a1,1,0,0,0,.26.09l.26,0a.34.34,0,0,0,.22-.06.24.24,0,0,0,0-.36.38.38,0,0,0-.24-.06.84.84,0,0,0-.27,0l-.2-.09.07-1.05h1.13v.45H10.9l0,.26a.5.5,0,0,1,.15,0Z"/><path class="cls-11" d="M12.93,20.43a.7.7,0,0,1-.14.46.45.45,0,0,1-.38.16.46.46,0,0,1-.37-.16.74.74,0,0,1-.13-.46A.7.7,0,0,1,12,20a.47.47,0,0,1,.37-.16.49.49,0,0,1,.38.17A.69.69,0,0,1,12.93,20.43Zm-.62,0a.57.57,0,0,0,0,.22c0,.05,0,.07.08.07s.06,0,.07-.07a.57.57,0,0,0,0-.22.63.63,0,0,0,0-.23.08.08,0,0,0-.07-.07s-.06,0-.08.07A.67.67,0,0,0,12.31,20.44Zm1.6-.6-1.09,2h-.41l1.1-2Zm.52,1.38a.7.7,0,0,1-.14.46.45.45,0,0,1-.38.16.45.45,0,0,1-.36-.17.69.69,0,0,1-.14-.45.7.7,0,0,1,.13-.46.44.44,0,0,1,.37-.16.47.47,0,0,1,.38.17A.69.69,0,0,1,14.43,21.22Zm-.61,0a1.13,1.13,0,0,0,0,.23s.05.07.08.07.06,0,.08-.08a1.27,1.27,0,0,0,0-.22A1.06,1.06,0,0,0,14,21c0-.05,0-.08-.08-.08s-.06,0-.08.07A1.09,1.09,0,0,0,13.82,21.22Z"/><path class="cls-11" d="M9.83,25.49H9.29v-1c0-.13,0-.25,0-.35l-.12.13L9,24.41l-.28-.34.68-.55h.48Z"/><path class="cls-11" d="M11.73,24.51a1.42,1.42,0,0,1-.17.77.63.63,0,0,1-.54.24.62.62,0,0,1-.53-.25,1.33,1.33,0,0,1-.18-.76,1.39,1.39,0,0,1,.17-.77.61.61,0,0,1,.54-.25.59.59,0,0,1,.53.26A1.31,1.31,0,0,1,11.73,24.51Zm-.89,0a1.66,1.66,0,0,0,0,.46c0,.08.07.12.14.12s.11,0,.14-.13a1.53,1.53,0,0,0,0-.45,1.66,1.66,0,0,0,0-.46c0-.09-.07-.13-.14-.13s-.11,0-.14.12A1.7,1.7,0,0,0,10.84,24.51Z"/><path class="cls-11" d="M12.93,24.11a.72.72,0,0,1-.14.46.45.45,0,0,1-.38.16.47.47,0,0,1-.37-.17.69.69,0,0,1-.13-.45.7.7,0,0,1,.13-.46.44.44,0,0,1,.37-.16.46.46,0,0,1,.38.17A.69.69,0,0,1,12.93,24.11Zm-.62,0a.63.63,0,0,0,0,.23s0,.07.08.07a.08.08,0,0,0,.07-.07.63.63,0,0,0,0-.23.57.57,0,0,0,0-.22c0-.05,0-.07-.07-.07s-.06,0-.08.07A.61.61,0,0,0,12.31,24.11Zm1.6-.59-1.09,2h-.41l1.1-2Zm.52,1.37a.7.7,0,0,1-.14.46.45.45,0,0,1-.38.16.44.44,0,0,1-.36-.16.74.74,0,0,1-.14-.46.65.65,0,0,1,.13-.45.44.44,0,0,1,.37-.16.46.46,0,0,1,.38.16A.69.69,0,0,1,14.43,24.89Zm-.61,0a1,1,0,0,0,0,.22c0,.05.05.07.08.07s.06,0,.08-.08a1.06,1.06,0,0,0,0-.21,1.27,1.27,0,0,0,0-.22c0-.05,0-.08-.08-.08s-.06,0-.08.08A1,1,0,0,0,13.82,24.9Z"/><path class="cls-11" d="M9.83,29.17H9.29V28.12c0-.12,0-.24,0-.35l-.12.13L9,28.09l-.28-.34.68-.56h.48Z"/><path class="cls-11" d="M11.11,27.87a.61.61,0,0,1,.3.08.54.54,0,0,1,.22.23.67.67,0,0,1,.07.33.63.63,0,0,1-.2.51.86.86,0,0,1-.6.18,1.27,1.27,0,0,1-.56-.11v-.44a1,1,0,0,0,.26.09,1.51,1.51,0,0,0,.26,0,.34.34,0,0,0,.22-.07.24.24,0,0,0,0-.36.38.38,0,0,0-.24-.06.84.84,0,0,0-.27,0l-.2-.09.07-1h1.13v.45H10.9l0,.26.15,0Z"/><path class="cls-11" d="M12.93,27.78a.7.7,0,0,1-.14.46.46.46,0,0,1-.38.17.47.47,0,0,1-.37-.17.72.72,0,0,1-.13-.46.65.65,0,0,1,.13-.45.45.45,0,0,1,.37-.17.49.49,0,0,1,.38.17A.69.69,0,0,1,12.93,27.78Zm-.62,0a.57.57,0,0,0,0,.22s0,.07.08.07.06,0,.07-.07a.57.57,0,0,0,0-.22.63.63,0,0,0,0-.23.08.08,0,0,0-.07-.07s-.06,0-.08.07A.67.67,0,0,0,12.31,27.79Zm1.6-.6-1.09,2h-.41l1.1-2Zm.52,1.38a.7.7,0,0,1-.14.46.45.45,0,0,1-.38.16.45.45,0,0,1-.36-.17.69.69,0,0,1-.14-.45.7.7,0,0,1,.13-.46.44.44,0,0,1,.37-.16.47.47,0,0,1,.38.17A.69.69,0,0,1,14.43,28.57Zm-.61,0a1.13,1.13,0,0,0,0,.23s.05.07.08.07.06,0,.08-.08a1.18,1.18,0,0,0,0-.22,1.06,1.06,0,0,0,0-.21c0-.05,0-.08-.08-.08s-.06,0-.08.07A1.09,1.09,0,0,0,13.82,28.57Z"/><rect class="cls-6" x="18.83" y="5.17" width="15.52" height="25.51"/><rect class="cls-7" x="20.99" y="13.48" width="11.18" height="3.56" transform="translate(53.15 30.51) rotate(180)"/><rect class="cls-7" x="20.99" y="7.5" width="11.18" height="4.37" transform="translate(53.15 19.37) rotate(180)"/><rect class="cls-7" x="20.99" y="18.38" width="11.18" height="1.78" transform="translate(53.15 38.54) rotate(180)"/><rect class="cls-7" x="20.99" y="21.82" width="11.18" height="6" transform="translate(53.15 49.63) rotate(180)"/></g></g></svg>