<svg xmlns="http://www.w3.org/2000/svg" xmlns:xlink="http://www.w3.org/1999/xlink" viewBox="0 0 227.29 105.44"><defs><style>.cls-1{fill:none;}.cls-2{clip-path:url(#clip-path);}.cls-3{fill:#8dc63f;}.cls-4{fill:#91c73e;}.cls-5{fill:#94c93c;}.cls-6{fill:#98ca3b;}.cls-7{fill:#9ccb39;}.cls-8{fill:#a0cc38;}.cls-9{fill:#a3ce37;}.cls-10{fill:#a7cf35;}.cls-11{fill:#abd034;}.cls-12{fill:#aed132;}.cls-13{fill:#b2d331;}.cls-14{fill:#b6d430;}.cls-15{fill:#b9d52e;}.cls-16{fill:#bdd62d;}.cls-17{fill:#c1d72b;}.cls-18{fill:#c4d92a;}.cls-19{fill:#c8da29;}.cls-20{fill:#ccdb27;}.cls-21{fill:#d0dc26;}.cls-22{fill:#d3de24;}.cls-23{fill:#d7df23;}</style><clipPath id="clip-path"><rect class="cls-1" x="13.98" y="11.79" width="192.14" height="74.48"/></clipPath></defs><title>Asset 1</title><g id="Layer_2" data-name="Layer 2"><g id="Layer_1-2" data-name="Layer 1"><g class="cls-2"><path class="cls-3" d="M.2,40.29c-.32-1.8,1.87-4.64,3.06-5.68a15,15,0,0,1,2.55-1.72,38,38,0,0,1,5.41-2.53,59.67,59.67,0,0,1,10-2.81,99.78,99.78,0,0,1,23.15-1.44c15.56.6,30.92,3.37,46.39,5,15.29,1.57,30.54,1.67,45.61-1.68a196.16,196.16,0,0,0,42.4-14.53c7.14-3.45,13.63-8.06,20.74-11.51,4.08-2,9.24-4,13.86-3.14,2.32.44,4.54,1.61,6.79,2.29.07,0,.11-.09,0-.11-4.54-1.39-7.71-3-12.55-2.07C200.77,1.63,194.93,5.79,189,9.25c-15.38,9-32.68,15.18-50,19.38-17.87,4.35-35.76,3.84-53.89,1.7-17.07-2-34.25-5.15-51.5-4.36-8.1.38-16.4,1.65-23.9,4.85C6.05,32.4-.82,35.25.08,40.32c0,.08.13,0,.12,0Z"/><path class="cls-4" d="M.54,43.14c-.52-3.22,3.15-6,5.49-7.4a34.92,34.92,0,0,1,4.08-2.1A56.56,56.56,0,0,1,21.77,30a97.45,97.45,0,0,1,23.56-1.65c16,.6,31.57,4.47,47.43,6.3,14.86,1.72,30.4,2,44.69-2.89,3.34-1.16,6.67-2.36,10.06-3.37s7.31-1.47,10.76-2.69c6.34-2.24,12.69-5.71,18.84-8.5C184.36,13.89,191,9.8,197.91,6c4.24-2.35,9.17-4.69,14.12-4.74,2.9,0,5.72,1.36,8.46,2.23a.06.06,0,1,0,0-.11c-5.31-1.7-8.74-2.84-14.3-1.2-7,2.07-12.89,6.68-19.24,10.11-7.52,4.06-15.53,6.92-23.22,10.59S147.91,28,139.9,30.76C104.79,43,70.22,26.44,34.63,28.26a71,71,0,0,0-23.14,4.66c-4,1.62-12,4.77-11.06,10.25,0,.08.13,0,.11,0Z"/><path class="cls-5" d="M.89,46c-.47-3.16,3-5.9,5.29-7.37a36.84,36.84,0,0,1,4-2.16,55.79,55.79,0,0,1,12.13-4.05,92.87,92.87,0,0,1,23.29-1.88c16.41.57,32.12,5.69,48.33,7.7,13.83,1.71,29,2.36,42-3.33a104.66,104.66,0,0,1,11.83-4.69c3.84-1.16,8.12-.91,11.82-2.3,2.09-.78,3.67-2.45,5.54-3.59a81,81,0,0,1,9.75-4.59,236.82,236.82,0,0,0,23-11.94c4.26-2.45,8.89-4.76,13.84-5.28,3.23-.34,6.14.85,9.19,1.87.07,0,.1-.09,0-.12-5.62-1.87-9.13-2.54-14.91-.5-6.92,2.45-12.72,7.1-19.23,10.38-7.38,3.72-15.84,6.13-22.72,10.73-2,1.32-3.1,2.29-5.56,2.93-1.92.49-3.72.69-5.65,1a57.57,57.57,0,0,0-11.67,3.62c-3.93,1.62-7.7,3.62-11.81,4.78-4.93,1.39-10.19,1.68-15.3,1.84A136.1,136.1,0,0,1,85.9,36.9c-17-3-33.52-7.46-51-6.35a69.35,69.35,0,0,0-23.44,5.16C7.54,37.44,0,40.66.77,46c0,.08.13,0,.12,0Z"/><path class="cls-6" d="M1.24,48.86C.82,45.66,4.12,43,6.4,41.46a37.84,37.84,0,0,1,4.73-2.65,58.3,58.3,0,0,1,12.59-4.23,88.13,88.13,0,0,1,24.73-1.73C64.58,33.91,79.79,40.09,95.8,42a116.07,116.07,0,0,0,24,.41c6.72-.6,12-2.92,17.94-6a54.6,54.6,0,0,1,11.91-4.8c3.46-.88,7.22-.3,10.57-1.28a10.82,10.82,0,0,0,4.11-2.76,38.85,38.85,0,0,1,9.85-6A231.43,231.43,0,0,0,197.77,9.64C201.71,7.29,206,5,210.48,4c3.85-.82,7.12.07,10.72,1.33a.06.06,0,0,0,0-.12c-5.88-2.05-9.53-2.19-15.49.2-7.06,2.82-13,7.72-19.9,10.88-6.58,3-14.75,5.25-20.36,10-1.86,1.56-2.9,2.93-5.34,3.69-2.1.66-4.13.44-6.29.69a41.41,41.41,0,0,0-11.62,3.41c-3.08,1.34-5.92,3.12-8.94,4.59a40.19,40.19,0,0,1-15.4,3.8A118.63,118.63,0,0,1,89.66,41c-16.87-2.91-32.77-8.91-50.13-8.41-8.91.26-18,1.63-26.26,5.12C9.08,39.48.36,43.11,1.12,48.86c0,.08.13.08.12,0Z"/><path class="cls-7" d="M1.58,51.71c-.39-3.43,3.24-6.19,5.6-7.78a37,37,0,0,1,3.94-2.32,55.72,55.72,0,0,1,12.21-4.49,78.88,78.88,0,0,1,26.2-2c15.87,1.5,30.54,8.52,46.34,10.49a98.73,98.73,0,0,0,24.77.26c7-.92,12.09-4.41,18.08-7.84a44,44,0,0,1,11.08-4.59c3.72-.93,7.36-.08,11-.74a7.73,7.73,0,0,0,4.51-2.91,27.48,27.48,0,0,1,9.06-6.72c8-3.88,15.84-6.91,23.4-11.59s15-8.4,23.8-5.22a.06.06,0,0,0,0-.12c-5.76-2.08-9.58-1.84-15.31.61-7.76,3.33-14.36,8.63-22.19,11.91-6.18,2.59-13.56,4.88-18.09,10-3.7,4.23-7.47,3.36-12.37,3.91a35,35,0,0,0-9.19,2.48C135.53,38.68,129,44.94,119,45.92a104.89,104.89,0,0,1-29.17-1.36c-16.94-3.15-32.49-10.43-50.05-9.79a72,72,0,0,0-25.13,5.06C10.22,41.68.76,45.65,1.46,51.71c0,.08.13.08.12,0Z"/><path class="cls-8" d="M1.93,54.57c-.13-2,2.33-5.21,3.65-6.47A20.89,20.89,0,0,1,8.53,46a41.18,41.18,0,0,1,4.61-2.63A58.43,58.43,0,0,1,25.39,39a70.85,70.85,0,0,1,27.4-1.29c15.1,2.47,28.78,9.85,44.07,11.63a89.37,89.37,0,0,0,22.76.1c7.19-1,12.24-4.9,18.17-8.75a40.9,40.9,0,0,1,11.46-5.24,25,25,0,0,1,6.88-1c1.91,0,3.91.73,5.82.45a6.7,6.7,0,0,0,4-2.26c2.37-2.46,3.6-4.71,6.69-6.64,7.61-4.75,16.3-7,23.83-11.88,7.69-5,16.08-10.46,25.41-6.95.07,0,.1-.09,0-.12-5.86-2.2-10.27-1.28-15.86,1.37a90,90,0,0,0-10.27,6c-4.54,2.93-9.4,4.73-14.35,6.81-5.55,2.34-10.93,5-14.43,9.9-3.34,4.62-9.15,2.77-13.94,3.41a34.48,34.48,0,0,0-9.87,3c-8,3.68-13.84,10.15-22.84,11.68-9.69,1.64-20.49.83-30.08-1-16.18-3.08-30.87-11.5-47.68-11.38A71.12,71.12,0,0,0,16,41.93c-4.83,2-14.57,6.23-14.15,12.64,0,.07.12.07.12,0Z"/><path class="cls-9" d="M2.27,57.42C2.18,55.49,4.49,52.29,5.78,51a21.5,21.5,0,0,1,2.83-2.18,40.39,40.39,0,0,1,4.45-2.72,55.83,55.83,0,0,1,12.69-4.77c9-2.27,18.68-3,27.81-1.13,14.88,3.07,28,11.07,43.22,12.85,7.53.88,15.84,1.36,23.31-.23s12.41-6.57,18.63-10.62a36.34,36.34,0,0,1,11.52-5.07,24.89,24.89,0,0,1,6.87-.75c2,.11,4,1,6,.78,4.8-.54,6-6.44,9.36-9,7.5-5.72,16.92-7.42,24.73-12.59,7.36-4.87,16-10.95,25-7.43.07,0,.1-.09,0-.11-6-2.34-10.85-.73-16.39,2.14a106,106,0,0,0-9.35,5.7c-4.48,2.95-9.34,4.54-14.25,6.56A49.9,49.9,0,0,0,172.43,28c-2.52,1.79-2.69,2.92-4.36,5.46-3.07,4.65-10,2.34-14.75,2.94a32.75,32.75,0,0,0-9.9,3c-8,3.78-13.74,11-22.63,13.11-9.33,2.22-20.41,1.29-29.74-.46C74.54,49,60,39,42.82,39A68,68,0,0,0,17.2,44c-5,2.1-15.38,6.73-15,13.41,0,.08.13.08.12,0Z"/><path class="cls-10" d="M2.62,60.27C2.51,57,5.76,54,8.15,52.11A40.26,40.26,0,0,1,13,48.86a53.32,53.32,0,0,1,12.31-5.07c8.85-2.48,18.52-3.44,27.55-1.41,8.06,1.81,15.39,5.6,22.93,8.81a74.47,74.47,0,0,0,20.93,5.56c7.41.84,15.7,1.36,23-.5,6.76-1.73,11.35-6.2,16.71-10.33a38.56,38.56,0,0,1,11.75-6.3c5.13-1.63,9.29-1,14.43-.37C169,40,169,34,172.51,30.33c6.61-7,17.08-7.76,24.84-12.95,7.22-4.84,16.21-11.94,25.26-8.31.08,0,.11-.09,0-.12-5.86-2.34-10.91-.31-16.19,2.56-3.58,1.94-6.88,4.32-10.3,6.53-4.57,3-9.82,4-14.71,6.25a38.88,38.88,0,0,0-7.92,5.06,11.05,11.05,0,0,0-2.38,2.24c-1.19,1.71-1.33,4.49-3.13,5.82-2.46,1.8-7.05,1.08-9.92.78a20.46,20.46,0,0,0-4.56.09,33.45,33.45,0,0,0-10.62,3.33C135,45.52,129.62,53,121.08,55.73c-9.17,2.93-20.81,1.78-30.12,0C74.36,52.68,60.32,41.22,43,41.17a63.46,63.46,0,0,0-25.34,5.19C12.55,48.61,2.27,53.5,2.5,60.27a.06.06,0,0,0,.12,0Z"/><path class="cls-11" d="M3,63.12c-.17-9,16-15.13,22.62-17.1,9.28-2.74,19.26-3.63,28.63-.87C62.64,47.63,70,52.38,78,55.79a66.23,66.23,0,0,0,20,4.83c7.32.67,15.52,1.1,22.56-1.43,7.27-2.61,11.83-8.62,18-12.92A35.78,35.78,0,0,1,149.91,41c5.21-1.38,8.88-.42,14,.43,4.64.78,6.37-2.77,8-6.42,4.42-10,16.27-9.89,24.46-15C203.88,15.23,213.4,6.06,223,10c.07,0,.1-.09,0-.12-6.25-2.58-12,.57-17.37,3.78-3.67,2.2-7,5-10.76,7-4.44,2.43-9.59,3.08-14.05,5.46-2.59,1.38-6.55,3.84-8.19,6.33-2.94,4.45-1.51,10.13-10,8.49-6.9-1.32-12.6-.86-19.08,2.28-8.08,3.91-13.34,11.8-21.62,15.26-9,3.78-20.7,2.78-30.16,1.14-16.78-2.9-30.36-15.74-47.63-16.34a58.74,58.74,0,0,0-26,5.35c-5.27,2.41-15.4,7.61-15.28,14.44,0,.08.13.08.13,0Z"/><path class="cls-12" d="M3.31,66c0-9.06,15.63-15.59,22.57-17.74,9.2-2.86,19-3.75,28.27-.65,8.49,2.85,15.59,8.3,23.71,11.91a62,62,0,0,0,20,4.85c7.52.63,15.82.93,22.89-2.14,7.4-3.21,12-10,18.54-14.45a34.56,34.56,0,0,1,11.55-5.09c5.3-1.2,9-.06,14.1.94,4.71.93,6.92-2.77,8.19-6.74,3.37-10.52,15.15-10.29,23.28-15,7.64-4.47,17.19-15,26.88-10.88.07,0,.13-.07.06-.1-5.63-2.39-10.94.47-15.78,3.35-3.42,2-6.54,4.45-9.85,6.63-4.52,3-9.77,3.53-14.58,5.77a23.27,23.27,0,0,0-8.37,6.33c-2,2.56-1.68,7-4.38,9.06-1.61,1.23-5.7,1.29-7.52.88-.9-.2-1.74-.57-2.65-.75a19,19,0,0,0-4.26-.29,29.77,29.77,0,0,0-10.22,2.37c-8.57,3.52-13.53,10.83-21,15.76-9,5.93-21.38,5.25-31.64,3.72-9-1.34-16.82-4.86-24.68-9.36-7-4-14.26-7.82-22.37-8.66-9.23-1-19.19,1.34-27.5,5.33C13.14,53.56,3.17,59,3.19,66a.06.06,0,0,0,.12,0Z"/><path class="cls-13" d="M3.66,68.83c.07-5.09,5.86-9.45,9.62-12.11a48.3,48.3,0,0,1,12.85-6.31c9.56-3.11,19.46-3.76,28.88.09C62.89,53.72,69.36,59.34,77,63a58.61,58.61,0,0,0,20.72,5.11c7.26.55,15,.72,21.82-2.31C127.38,62.27,132,54.83,138.87,50a36.12,36.12,0,0,1,11.48-5.33c5.54-1.44,9.62-.59,14.92.91,4.79,1.35,7.42-1.46,8.86-5.78,1.51-4.53,2.93-7.63,7.16-10.42,4.47-2.95,9.84-3.17,14.56-5.44C204,20.05,213.62,7.5,223.66,11.88c.07,0,.13-.07.06-.11-6-2.62-12.06,1.45-16.94,4.62-3.71,2.41-7.12,5.51-11.11,7.43-4.43,2.13-9.54,2.43-13.77,5.06-2.37,1.47-5.45,3.87-6.74,6.38a16.66,16.66,0,0,0-.69,2.89c-.19.74-.38,1.47-.63,2.19-1.13,3.13-1.92,3.86-5.37,4.53s-4.69-.31-8-.91a20.09,20.09,0,0,0-5-.26,31,31,0,0,0-10.23,2.63C136.51,50.1,131.62,57.83,124,63.1c-8.58,5.95-19.62,5.73-29.59,4.55S76.22,62.82,67.9,57.49C61.22,53.2,54.2,49,46.18,47.87,37.06,46.63,27,49.16,18.89,53.25,13.37,56,3.63,61.78,3.54,68.83a.06.06,0,0,0,.12,0Z"/><path class="cls-14" d="M4,71.68c.28-9.14,14.36-16.26,21.61-18.85,10.09-3.6,20.47-4.11,30.22.68,7.46,3.66,13.47,9.65,20.94,13.27a55,55,0,0,0,20,5c7.48.57,15.35.63,22.23-2.74s11.31-9.9,17.08-14.86c7.12-6.11,18.08-10.74,27.43-7.58,5.13,1.74,9,2.69,11.45-3.24a51.9,51.9,0,0,0,1.32-5.19A14.29,14.29,0,0,1,181,31.49c4.65-3.94,10.44-3.64,15.66-6.15C204.48,21.56,214.3,8.47,224,12.82c.07,0,.14-.08.06-.11C218,10,211.45,14.92,206.7,18.2c-3.78,2.62-7.35,6.07-11.71,7.68s-9,1.86-12.86,4.57c-1.91,1.35-4.79,3.92-5.71,6.2-2.19,5.43-.68,13.66-10.84,10.66-7.43-2.2-13.57-2.13-20.82,1.17-8,3.63-12.71,10.19-19.09,15.85-8.82,7.8-20.2,8.32-31.41,7.08A54.37,54.37,0,0,1,68,61.17C61.13,56.29,54,51.21,45.48,50c-9-1.27-19,1.53-26.92,5.84-5.48,3-14.47,8.86-14.68,15.84a.06.06,0,0,0,.12,0Z"/><path class="cls-15" d="M4.35,74.54c.78-9.9,14.87-17.37,23-20.1C37.94,50.89,48,51.38,57.57,57.32c6.5,4,11.79,9.8,18.69,13.22a54.08,54.08,0,0,0,20.71,5c7.6.46,15.27.2,22.06-3.62,7.22-4.06,11.54-11.4,17.87-16.52,8.41-6.81,19.22-9.91,29.47-5.94,4.47,1.73,7.83.95,9.77-3.72,1.81-4.34,1.25-8.35,4.77-12,4.71-4.92,10.84-4.31,16.55-7,7.54-3.53,17.52-17.27,26.91-13,.07,0,.13-.08.06-.11-6.19-2.84-13.18,3-17.79,6.39-4.08,3-7.52,6.22-12.49,7.68-3.84,1.13-7.82,1.42-11.13,3.9-2.18,1.64-4.57,4.27-5.4,6.88-.49,1.54-.45,3.31-.87,4.9a15.15,15.15,0,0,1-1.21,3.38c-1.87,3.45-6.54,3.54-9.75,2.28-6.73-2.64-13.52-1.88-20.13.95-8.9,3.8-13.89,11.05-20.77,17.41-8.33,7.7-18.68,8.77-29.55,7.88-10.1-.83-19.1-3.94-27.13-10.16C61.67,60.08,55.3,54.56,47,52.58c-8.91-2.13-18.93.61-26.87,4.78C14,60.59,4.82,66.94,4.23,74.54c0,.07.11.07.12,0Z"/><path class="cls-16" d="M4.7,77.39c.94-10.14,14.37-17.91,22.83-20.86,10.86-3.79,21.06-2.69,30.42,4.1,6.33,4.6,11.37,10.66,18.54,14.07,6.85,3.27,14.5,4.43,22,4.65s14.74-.71,21.09-5c7.37-5,11.76-13.15,19-18.31,8.12-5.79,18.62-8.82,28.1-4.81,4.6,2,8.46,2.12,10.5-3.14,1.38-3.55,1-7.61,2.87-11,3.85-6.84,11.06-6.25,17.4-8.71,3.71-1.43,6.7-4.51,9.83-6.88,4.36-3.32,11.58-9.57,17.42-6.83.07,0,.13-.07.06-.1-6.24-2.93-13.69,3.85-18.16,7.3-4,3.07-7.39,6.17-12.48,7.33-4.17.94-8.2,1.51-11.47,4.5-6.75,6.19-2.31,23-16.53,17.12-6.58-2.71-13.6-1.78-20.06.91-8.46,3.52-13.73,9.91-19.79,16.47-8.1,8.78-17.75,11.52-29.47,10.94C86.21,78.64,76.29,75.86,68,69c-6.2-5.14-11.75-10.9-19.57-13.63-9.17-3.2-19.77-.35-28,4.17C14.11,63,5.29,69.64,4.57,77.39c0,.08.12.07.13,0Z"/><path class="cls-17" d="M5,80.24C6.15,69.87,18.93,61.75,27.71,58.61c11.49-4.12,21.9-2,31,5.94,5.9,5.12,10.66,11.07,18,14.35,7,3.18,15,4.15,22.62,4.18S114,81.4,120.07,76.66c7.38-5.78,11.86-14.39,19.83-19.56a38.14,38.14,0,0,1,12.76-5.38c6.31-1.33,10.62.05,16.39,2.28,4.79,1.86,8.23.32,9.78-4.62,1.2-3.8.72-8,2.71-11.55,4-7.12,11.26-5.51,17.55-8.35,3.12-1.4,5.68-4.1,8.32-6.21,4.13-3.29,11.87-10.42,17.66-7.64.07,0,.14-.07.07-.1-5.7-2.73-12.6,3.56-16.66,6.74s-7.56,6.83-12.68,8.08c-4.43,1.09-8.73,1.23-12.18,4.57-5.89,5.71-1.94,23.16-14.47,18.91-3.48-1.17-6.28-2.73-10.08-2.84A31,31,0,0,0,147,53.31c-8.71,3.44-14.34,9.69-20.33,16.62-7.92,9.14-16.92,13.32-29.09,13-10.82-.28-21.48-2.72-29.79-10C61.48,67.46,56.36,61,48.38,57.82,39.3,54.18,28.84,57,20.65,61.69,14.17,65.37,5.77,72.32,4.92,80.24c0,.08.11.08.12,0Z"/><path class="cls-18" d="M5.39,83.09C6.68,72.49,18.7,64,27.87,60.65c12.21-4.46,22.62-1.07,31.48,8,5.38,5.51,9.85,11.08,17.11,14.17s15.75,4,23.65,3.93a30.45,30.45,0,0,0,19.26-7C127,73.52,131.57,64.39,140,58.93a38.4,38.4,0,0,1,12.86-5.36c6.49-1.35,11.27,0,17.19,2.56,5.08,2.25,8.65.24,10.19-4.91,1.09-3.66.61-7.66,2-11.2,3.12-7.83,10.31-6.56,16.81-8.88,3.28-1.17,5.76-3.83,8.38-6,4-3.35,12.15-11.38,18-8.54.07,0,.13-.07.06-.11-5.92-2.9-13.49,4.73-17.56,8.11s-7.45,6.43-13,7.37c-4.19.71-8.06,1.34-10.91,4.79a12.45,12.45,0,0,0-2.68,6.32c-.33,2.15-.37,4.32-.81,6.46a19.14,19.14,0,0,1-.56,2.23c-1.19,3.62-4.38,5.39-8.33,4.92-2.19-.27-4.55-2.36-6.81-3a21.49,21.49,0,0,0-5.52-.82,32,32,0,0,0-12.84,2.62c-8.41,3.46-14,9.54-19.75,16.4-7.55,9.09-16,15-28.28,14.81C88,86.46,76.67,84.77,68.39,77.82,61.48,72,56.79,64.19,48.3,60.3,39.35,56.21,29,59,20.84,63.83,14.19,67.75,6.25,75,5.27,83.09c0,.08.11.08.12,0Z"/><path class="cls-19" d="M5.73,86C7,76.45,16.22,68.2,24.39,64.23c5.72-2.78,12.7-4.79,19-3.13,5.72,1.49,10.51,5.35,14.4,9.66,5.32,5.88,9.54,12.09,16.94,15.5,7.24,3.33,15.66,4.3,23.55,4.22a31.3,31.3,0,0,0,20.33-7.54c7.73-6.61,12.3-16.08,20.94-21.78,8.95-5.92,20.07-8.6,30-3.73,4.72,2.32,9.2,3.09,11.56-2.6,1.35-3.27,1.27-6.9,1.63-10.34.39-3.66,2-7.14,5.23-9.14,2.94-1.81,6.24-1.58,9.48-2.25,4.14-.86,6.47-3,9.57-5.69,3.82-3.36,12.85-12.84,18.72-9.9.07,0,.13-.07.06-.11-6.05-3-14.36,6-18.37,9.48A55.44,55.44,0,0,1,203,30.74c-2.8,2-5.6,2.17-8.84,2.67-3.65.57-6.8,1.49-9.1,4.54-5.37,7.14.54,27-15.36,19.38-7.32-3.5-14.71-3.25-22.26-.34-8.92,3.45-14.94,9.72-20.82,17-7.26,9-15.35,15.93-27.48,16.33-10.27.34-21.91-1.36-30.23-7.81-7.45-5.78-11.6-14.74-20.09-19.39C33.38,54.74,8,68.55,5.61,85.93c0,.08.11.11.12,0Z"/><path class="cls-20" d="M6.08,88.82c1.53-10.08,10.31-18.7,19.15-22.91,5.83-2.77,12.62-4.36,18.9-2.22,5.59,1.9,10,6.28,13.57,10.8,4.65,5.9,8.58,11.85,15.53,15.27,7.27,3.58,16,4.64,24.07,4.42a32,32,0,0,0,20.61-8.12c7.44-6.61,11.9-15.92,20-21.85,8.59-6.28,21.25-10.5,31.37-5.41,5,2.5,10.24,4.91,13.1-1.62,1.41-3.22,1.41-6.89,1.63-10.33.2-3.12.66-6.2,2.84-8.64,3.1-3.47,7.28-3.07,11.41-3.79,3.9-.68,6.1-2.57,8.91-5.16,3.77-3.46,13-13.81,18.92-10.81.07,0,.14-.07.07-.11-5.89-3-14.38,6.54-18.1,9.94a36.75,36.75,0,0,1-5.31,4.59c-3,1.74-6.3,1.39-9.51,2-3.46.63-6.26,2.24-7.94,5.41C183.88,43,184,46,183.82,49a27.52,27.52,0,0,1-1.12,7,9.86,9.86,0,0,1-2.12,3.76c-3.76,3.53-7.36.93-10.59-.8-7.23-3.87-15.72-2.92-23.11.07-9.25,3.74-15.3,10.45-21.33,18.14C118.4,86.38,110.2,93.47,98.05,94c-10.13.46-21.71-1.19-29.91-7.6C60.81,80.68,57.25,71.5,49.37,66.26,33.4,55.63,8.67,71,6,88.78c0,.08.11.11.12,0Z"/><path class="cls-21" d="M6.42,91.67c1.74-10.37,9.66-19.29,19-23.75C32,64.75,39.27,63.43,46,67c5.07,2.73,8.68,7.17,11.86,11.84,4.4,6.47,8.58,12.2,16,15.43s16.63,4.21,24.68,3.36a33.09,33.09,0,0,0,19.73-9.49c7.61-7.46,12.31-17.27,21.45-23.23s21.27-9.2,31.26-3.74c5.13,2.81,10.29,4.29,13-2.21,1.4-3.38,1.36-7.21,1.47-10.8.12-3.43.34-7.41,3.34-9.76s6.76-2.16,10.42-2.71c4.19-.62,6.43-2.87,9.36-5.67,3.48-3.32,12.49-13.53,18-10.68.07,0,.13-.07.06-.1-5.81-3-14.6,7.33-18.13,10.69a29.68,29.68,0,0,1-4.83,4.29c-2.92,1.74-6.29,1.23-9.47,1.78-3.51.6-6.19,2.15-7.74,5.46-1.33,2.84-1,5.82-1.16,8.86a30,30,0,0,1-.89,7c-.45,1.57-1.11,3.71-2.48,4.75l-6,1.4a17.45,17.45,0,0,1-4.24-2c-7.54-4.11-15.69-3.83-23.64-.84-8.58,3.23-14.91,8.95-20.5,16.08-7.56,9.66-14.65,18.71-27.55,20.63-10.27,1.54-22.8,0-31.43-6.16-7.94-5.66-11-15.62-18.6-21.67-16.44-13.1-40.51,4-43.55,22.14,0,.07.1.1.11,0Z"/><path class="cls-22" d="M6.77,94.52a34.4,34.4,0,0,1,21.62-25.9c13.79-5.15,22.77,3.88,29.43,14.82,4,6.51,8.24,11.84,15.44,14.85a48.83,48.83,0,0,0,25.57,2.82c8.23-1.33,15.18-5.77,20.62-12C126.5,81,131.55,71.7,141,66s21.4-8.17,31.47-2.4c5.81,3.33,11.14,3.29,13.27-3.86,1.08-3.62,1-7.45.95-11.18,0-3.2.46-6.65,2.93-9,3.17-3,7.32-2.06,11.14-2.66,4-.63,6.09-3.23,8.81-5.92,3.4-3.36,12-13.46,17.26-10.7.07,0,.13-.07.06-.1-5.6-3-14.58,7.9-17.85,11.16a27.76,27.76,0,0,1-4.66,4.28c-2.93,1.75-6.25,1.08-9.43,1.57-3.53.54-6.15,2.13-7.54,5.52-1.32,3.2-.72,6.69-.84,10a27.57,27.57,0,0,1-.94,6.94,10,10,0,0,1-1.9,3.8c-3.53,4-7.65,2-11.2,0-7.72-4.36-16.18-4.13-24.4-1.07-8.68,3.24-15.22,9-20.83,16.26-7,9.1-13.36,18.36-25.09,21.56C91.81,103.1,78,101.71,68.85,95.88c-8.79-5.58-11.33-16.08-18.64-23C33.51,57.06,10,76,6.65,94.49c0,.07.1.11.12,0Z"/><path class="cls-23" d="M7.11,97.37C9.22,86.65,15,77.32,24.88,72.19c7.4-3.83,15.23-4.36,22,1,4.8,3.83,7.51,9,10.42,14.3,3.81,6.88,8.46,12.15,16,15a47.24,47.24,0,0,0,27.16,1.66c8.46-2.19,15-7.72,20.24-14.5,7.91-10.17,14.53-20.12,27-25a33.16,33.16,0,0,1,16.78-2.32,22.39,22.39,0,0,1,8.37,3c1.87,1.11,3.71,2.48,5.9,2.89,6.69,1.26,8.78-6,9.23-11.22s-1.6-12.17,2.56-16.23c4.36-4.26,11.26-.74,15.94-4.52,2.8-2.25,5.11-5.32,7.7-7.82s8.81-9.42,13-7.16c.07,0,.13-.07.07-.11-4.58-2.45-11.3,5.33-14,8-2.4,2.36-4.56,5.3-7.28,7.29-4.37,3.2-10.18.37-14.54,3.41-3,2.09-3.65,5.84-3.61,9.25.05,4.73.54,9.49-1.27,14-3.61,9-11,2.89-16.75.51a26.14,26.14,0,0,0-13.74-1.35A43,43,0,0,0,131,76c-8.63,9.51-14.11,21.73-26.74,26.75-10.33,4.11-24.48,3.25-34.35-1.9S57.79,85.63,51.37,77.53C43.93,68.16,33.63,67,23.44,72.84,14.27,78.15,9,87.13,7,97.34c0,.08.1.11.11,0Z"/></g></g></g></svg>